{
  "accessors": [
    {
      "bufferView": 2,
      "componentType": 5126,
      "count": 4345,
      "max": [
        4.588254928588867,
        4.432260990142822,
        17.56081199645996
      ],
      "min": [
        -4.588253974914551,
        -3.199536085128784,
        -0.05351800099015236
      ],
      "type": "VEC3"
    },
    {
      "bufferView": 2,
      "byteOffset": 52140,
      "componentType": 5126,
      "count": 4345,
      "max": [
        0.9999994039535522,
        0.9999807476997375,
        0.9999954700469971
      ],
      "min": [
        -0.9999994039535522,
        -0.9999665021896362,
        -0.999973475933075
      ],
      "type": "VEC3"
    },
    {
      "bufferView": 3,
      "componentType": 5126,
      "count": 4345,
      "max": [
        1.0,
        1.0,
        1.0,
        1.0
      ],
      "min": [
        -1.0,
        -1.0,
        -1.0,
        -1.0
      ],
      "type": "VEC4"
    },
    {
      "bufferView": 1,
      "componentType": 5126,
      "count": 4345,
      "max": [
        0.9778730273246765,
        0.948436975479126
      ],
      "min": [
        0.008340000174939632,
        0.009096000343561172
      ],
      "type": "VEC2"
    },
    {
      "bufferView": 0,
      "componentType": 5125,
      "count": 19896,
      "type": "SCALAR"
    },
    {
      "bufferView": 2,
      "byteOffset": 104280,
      "componentType": 5126,
      "count": 1728,
      "max": [
        4.0643839836120605,
        1.1857869625091553,
        7.156396865844727
      ],
      "min": [
        -4.0643839836120605,
        -1.8274879455566406,
        3.2559800148010254
      ],
      "type": "VEC3"
    },
    {
      "bufferView": 2,
      "byteOffset": 125016,
      "componentType": 5126,
      "count": 1728,
      "max": [
        1.0,
        0.9999757409095764,
        0.9999750256538391
      ],
      "min": [
        -1.0,
        -0.999945342540741,
        -0.9999797344207764
      ],
      "type": "VEC3"
    },
    {
      "bufferView": 3,
      "byteOffset": 69520,
      "componentType": 5126,
      "count": 1728,
      "max": [
        1.0,
        1.0,
        0.9999997615814209,
        1.0
      ],
      "min": [
        -0.9853291511535645,
        -1.0,
        -0.9999958872795105,
        -1.0
      ],
      "type": "VEC4"
    },
    {
      "bufferView": 1,
      "byteOffset": 34760,
      "componentType": 5126,
      "count": 1728,
      "max": [
        0.9786249995231628,
        0.9913880228996277
      ],
      "min": [
        0.008340000174939632,
        0.008081000298261642
      ],
      "type": "VEC2"
    },
    {
      "bufferView": 0,
      "byteOffset": 79584,
      "componentType": 5125,
      "count": 7152,
      "type": "SCALAR"
    },
    {
      "bufferView": 2,
      "byteOffset": 145752,
      "componentType": 5126,
      "count": 418,
      "max": [
        3.0585100650787354,
        -2.1009271144866943,
        11.773807525634766
      ],
      "min": [
        -3.0585100650787354,
        -2.929996967315674,
        9.222734451293945
      ],
      "type": "VEC3"
    },
    {
      "bufferView": 2,
      "byteOffset": 150768,
      "componentType": 5126,
      "count": 418,
      "max": [
        0.9989420175552368,
        0.09925801306962967,
        0.9489784836769104
      ],
      "min": [
        -0.9989420175552368,
        -0.9992444515228271,
        -0.8109168410301208
      ],
      "type": "VEC3"
    },
    {
      "bufferView": 3,
      "byteOffset": 97168,
      "componentType": 5126,
      "count": 418,
      "max": [
        0.997886598110199,
        0.9998412728309631,
        0.4894990622997284,
        1.0
      ],
      "min": [
        -0.07385049760341644,
        -0.9967024326324463,
        -0.6315432190895081,
        1.0
      ],
      "type": "VEC4"
    },
    {
      "bufferView": 1,
      "byteOffset": 48584,
      "componentType": 5126,
      "count": 418,
      "max": [
        0.7841709852218628,
        0.9573519825935364
      ],
      "min": [
        0.15820200741291046,
        0.8067579865455627
      ],
      "type": "VEC2"
    },
    {
      "bufferView": 0,
      "byteOffset": 108192,
      "componentType": 5125,
      "count": 2304,
      "type": "SCALAR"
    }
  ],
  "asset": {
    "extras": {
      "author": "Leon Da Kimchi (https://sketchfab.com/dakimchi)",
      "license": "CC-BY-4.0 (http://creativecommons.org/licenses/by/4.0/)",
      "source": "https://sketchfab.com/3d-models/macchiato-animal-crossing-original-character-afa85a77225c42109f7f86c7debcf583",
      "title": "Macchiato (Animal Crossing original character)"
    },
    "generator": "Sketchfab-12.68.0",
    "version": "2.0"
  },
  "bufferViews": [
    {
      "buffer": 0,
      "byteLength": 117408,
      "name": "floatBufferViews",
      "target": 34963
    },
    {
      "buffer": 0,
      "byteLength": 51928,
      "byteOffset": 117408,
      "byteStride": 8,
      "name": "floatBufferViews",
      "target": 34962
    },
    {
      "buffer": 0,
      "byteLength": 155784,
      "byteOffset": 169336,
      "byteStride": 12,
      "name": "floatBufferViews",
      "target": 34962
    },
    {
      "buffer": 0,
      "byteLength": 103856,
      "byteOffset": 325120,
      "byteStride": 16,
      "name": "floatBufferViews",
      "target": 34962
    }
  ],
  "buffers": [
    {
      "byteLength": 428976,
      "uri": "scene.bin"
    }
  ],
  "images": [
    {
      "uri": "textures/initialShadingGroup_baseColor.jpeg"
    },
    {
      "uri": "textures/initialShadingGroup_metallicRoughness.png"
    },
    {
      "uri": "textures/initialShadingGroup_normal.png"
    },
    {
      "uri": "textures/lambert2SG_baseColor.jpeg"
    },
    {
      "uri": "textures/lambert2SG_metallicRoughness.png"
    },
    {
      "uri": "textures/lambert2SG_normal.png"
    },
    {
      "uri": "textures/lambert3SG_baseColor.jpeg"
    },
    {
      "uri": "textures/lambert3SG_metallicRoughness.png"
    },
    {
      "uri": "textures/lambert3SG_normal.png"
    }
  ],
  "materials": [
    {
      "doubleSided": true,
      "name": "initialShadingGroup",
      "normalTexture": {
        "index": 2
      },
      "pbrMetallicRoughness": {
        "baseColorTexture": {
          "index": 0
        },
        "metallicRoughnessTexture": {
          "index": 1
        }
      }
    },
    {
      "doubleSided": true,
      "name": "lambert2SG",
      "normalTexture": {
        "index": 5
      },
      "pbrMetallicRoughness": {
        "baseColorTexture": {
          "index": 3
        },
        "metallicRoughnessTexture": {
          "index": 4
        }
      }
    },
    {
      "doubleSided": true,
      "name": "lambert3SG",
      "normalTexture": {
        "index": 8
      },
      "pbrMetallicRoughness": {
        "baseColorTexture": {
          "index": 6
        },
        "metallicRoughnessTexture": {
          "index": 7
        }
      }
    }
  ],
  "meshes": [
    {
      "name": "Object_0",
      "primitives": [
        {
          "attributes": {
            "NORMAL": 1,
            "POSITION": 0,
            "TANGENT": 2,
            "TEXCOORD_0": 3
          },
          "indices": 4,
          "material": 0,
          "mode": 4
        }
      ]
    },
    {
      "name": "Object_1",
      "primitives": [
        {
          "attributes": {
            "NORMAL": 6,
            "POSITION": 5,
            "TANGENT": 7,
            "TEXCOORD_0": 8
          },
          "indices": 9,
          "material": 2,
          "mode": 4
        }
      ]
    },
    {
      "name": "Object_2",
      "primitives": [
        {
          "attributes": {
            "NORMAL": 11,
            "POSITION": 10,
            "TANGENT": 12,
            "TEXCOORD_0": 13
          },
          "indices": 14,
          "material": 1,
          "mode": 4
        }
      ]
    }
  ],
  "nodes": [
    {
      "children": [
        1
      ],
      "matrix": [
        1.0,
        0.0,
        0.0,
        0.0,
        0.0,
        2.220446049250313e-16,
        -1.0,
        0.0,
        0.0,
        1.0,
        2.220446049250313e-16,
        0.0,
        0.0,
        0.0,
        0.0,
        1.0
      ],
      "name": "Sketchfab_model"
    },
    {
      "children": [
        2,
        3,
        4
      ],
      "name": "Macchiato.obj.cleaner.materialmerger.gles"
    },
    {
      "mesh": 0,
      "name": "Object_2"
    },
    {
      "mesh": 1,
      "name": "Object_3"
    },
    {
      "mesh": 2,
      "name": "Object_4"
    }
  ],
  "samplers": [
    {
      "magFilter": 9729,
      "minFilter": 9987,
      "wrapS": 10497,
      "wrapT": 10497
    }
  ],
  "scene": 0,
  "scenes": [
    {
      "name": "Sketchfab_Scene",
      "nodes": [
        0
      ]
    }
  ],
  "textures": [
    {
      "sampler": 0,
      "source": 0
    },
    {
      "sampler": 0,
      "source": 1
    },
    {
      "sampler": 0,
      "source": 2
    },
    {
      "sampler": 0,
      "source": 3
    },
    {
      "sampler": 0,
      "source": 4
    },
    {
      "sampler": 0,
      "source": 5
    },
    {
      "sampler": 0,
      "source": 6
    },
    {
      "sampler": 0,
      "source": 7
    },
    {
      "sampler": 0,
      "source": 8
    }
  ]
}
